<?xml version="1.0" encoding="UTF-8" standalone="no"?><!DOCTYPE svg PUBLIC "-//W3C//DTD SVG 1.1//EN" "http://www.w3.org/Graphics/SVG/1.1/DTD/svg11.dtd"><svg width="100%" height="100%" viewBox="0 0 100 100" version="1.1" xmlns="http://www.w3.org/2000/svg" xmlns:xlink="http://www.w3.org/1999/xlink" xml:space="preserve" style="fill-rule:evenodd;clip-rule:evenodd;stroke-linejoin:round;stroke-miterlimit:1.41421;"><g><path d="M50.164,24.596c1.053,0 2.169,-0.025 3.186,0.108l0.929,-6.251c-1.431,-0.207 -2.883,-0.352 -4.372,-0.352c-5.838,0 -11.471,1.874 -16.237,4.884l3.619,5.429c3.707,-2.406 8.123,-3.818 12.875,-3.818Z" style="fill:#fff;fill-rule:nonzero;"/><path d="M76.502,64.258c2.364,-4.937 3.719,-10.57 3.719,-15.836c0,-5.999 -1.746,-11.587 -4.752,-16.292l-5.295,3.306c1.673,2.53 2.765,5.334 3.304,8.374l-15.049,-1.737l2.323,-13.344l-8.123,8.702l-8.703,-9.862l3.481,14.504l-13.344,-5.803l9.283,9.284l-12.764,4.64l13.924,0l-11.196,14.792c-4.24,-4.283 -6.859,-10.173 -6.859,-16.677c0,-6.625 2.723,-12.609 7.104,-16.911l-4.838,-4.568c-3.931,3.703 -6.787,8.245 -7.882,12.979c-0.586,2.528 -1.248,9.135 -1.248,9.135l-8.223,17.297c-0.126,0.283 -0.187,0.612 -0.187,0.946c0,1.349 1.086,2.441 2.439,2.441l5.97,0l0,7.121c0,9.124 5.345,11.963 11.948,11.963l4.053,0l0,11.157l33.042,0l0,-25.308c1.859,-1.464 3.538,-3.307 5.011,-5.395l-5.62,-5.288c-4.347,4.979 -10.726,8.142 -17.856,8.142c-6.163,0 -11.777,-2.352 -15.993,-6.207l16.718,-12.139l0,15.662l5.801,-16.822l11.602,5.222l-6.382,-8.702l11.572,-5.208c0.253,1.443 0.396,2.934 0.396,4.481c0,4.51 -1.283,8.707 -3.467,12.295l6.091,3.656Z" style="fill:#fff;fill-rule:nonzero;"/><path d="M24.457,24.201l-6.677,-6.055l1.52,-1.676l6.677,6.056l-1.52,1.675Z" style="fill:#fff;fill-rule:nonzero;"/><path d="M61.681,15.181l-2.16,-0.679l2.392,-7.615l2.158,0.677l-2.39,7.617Z" style="fill:#fff;fill-rule:nonzero;"/><path d="M80.165,30.469l-1.13,-1.961l14.359,-8.266l1.128,1.961l-14.357,8.266Z" style="fill:#fff;fill-rule:nonzero;"/><path d="M84.168,73.053l-7.397,-5.223l1.305,-1.847l7.398,5.222l-1.306,1.848Z" style="fill:#fff;fill-rule:nonzero;"/><path d="M29.93,21.419l-11.747,-17.403l1.876,-1.266l11.747,17.404l-1.876,1.265Z" style="fill:#fff;fill-rule:nonzero;"/><path d="M35.904,16.842l-4.352,-11.312l2.112,-0.813l4.352,11.313l-2.112,0.812Z" style="fill:#fff;fill-rule:nonzero;"/><path d="M76.454,26.4l-1.541,-1.655l6.526,-6.09l1.542,1.654l-6.527,6.091Z" style="fill:#fff;fill-rule:nonzero;"/><path d="M55.687,14.832l-2.246,-0.273l1.742,-14.358l2.245,0.272l-1.741,14.359Z" style="fill:#fff;fill-rule:nonzero;"/><path d="M70.088,20.562l-1.861,-1.289l7.833,-11.312l1.859,1.287l-7.831,11.314Z" style="fill:#fff;fill-rule:nonzero;"/><path d="M92.441,64.354l-10.443,-3.48l0.717,-2.146l10.442,3.482l-0.716,2.144Z" style="fill:#fff;fill-rule:nonzero;"/><path d="M67.737,32.463l4.803,-4.148c-3.601,-4.057 -8.249,-7.164 -13.555,-8.826l-1.867,5.796c4.444,1.209 7.623,3.862 10.619,7.178Z" style="fill:#fff;fill-rule:nonzero;"/><rect x="84.173" y="47.2" width="12.552" height="2.262" style="fill:#fff;fill-rule:nonzero;"/></g></svg>