<?xml version="1.0" encoding="UTF-8" standalone="no"?><!DOCTYPE svg PUBLIC "-//W3C//DTD SVG 1.1//EN" "http://www.w3.org/Graphics/SVG/1.1/DTD/svg11.dtd"><svg width="100%" height="100%" viewBox="0 0 162 162" version="1.1" xmlns="http://www.w3.org/2000/svg" xmlns:xlink="http://www.w3.org/1999/xlink" xml:space="preserve" style="fill-rule:evenodd;clip-rule:evenodd;stroke-linejoin:round;stroke-miterlimit:1.41421;"><path d="M130.707,102.025c-1.02,-1.219 -8.175,-9.758 -12.007,-14.393c-3.834,-4.637 -9.965,-2.684 -20.186,-13.418c-10.22,-10.733 -19.419,-25.128 -22.486,-28.056c-3.063,-2.928 -5.108,-3.416 -4.854,-6.832c0.258,-3.414 0.768,-13.172 -0.766,-15.125c-1.021,-2.195 -1.021,-6.586 -1.277,-9.758c-0.256,-3.172 0.766,-13.906 -2.555,-14.394c-3.068,-0.244 -6.389,0 -6.9,11.223c-0.511,11.223 0.511,27.568 -4.601,26.592c-5.109,-0.975 -16.096,-6.83 -21.461,-7.074c-5.365,-1.219 -14.565,-5.123 -19.676,-7.076c-5.109,-1.951 -9.197,-5.854 -11.752,-2.195c-1.023,3.66 -4.088,5.125 11.497,11.955c15.075,7.318 30.15,14.639 28.874,15.613c-1.279,0.976 -12.01,5.123 -15.076,7.564c-3.064,2.437 -13.796,12.441 -17.884,15.369c-2.044,1.463 -7.929,2.018 -9.198,5.609c-0.393,1.373 -1.277,4.393 2.555,7.32c-0.512,3.902 1.95,4.744 2.301,4.879c1.277,0.488 6.387,-1.463 12.775,-1.463c5.62,-0.244 12.52,3.17 14.053,3.17c3.577,0.488 9.965,7.074 14.563,9.516c4.599,1.465 19.675,7.807 29.894,6.098c10.221,-1.707 17.631,-2.439 30.918,19.518c9.109,15.055 17.857,28.043 22.459,34.723l31.76,-31.762c-11.877,-10.491 -30.277,-26.778 -30.969,-27.603Zm-83.295,-25.615c-1.789,4.635 -11.753,0.486 -13.285,0c-1.534,-0.488 -4.602,-1.221 -4.855,-1.707c-0.256,-0.488 3.722,-4.18 7.153,-3.66c4.854,0.73 10.987,-3.416 12.265,-3.66c1.277,-0.244 4.089,0.488 4.089,0.732c-0.001,0.244 -3.578,3.659 -5.367,8.295Z" style="fill:#000;fill-rule:nonzero;"/></svg>
