<svg xmlns="http://www.w3.org/2000/svg" viewBox="0 0 480 480" overflow="hidden"><g fill="#fff" stroke="#fff" stroke-linecap="round"><path d="M25 25l71.666 71.666M96.666 25l71.667 71.666M168.333 25L240 96.665M240 25l71.666 71.666M383.334 25l-71.667 71.666M455 25l-71.666 71.666M25 96.666l71.666 71.667" stroke-width="6"/><path d="M96.666 96.666l71.667 71.667" stroke-width="18.375"/><path d="M168.333 96.666L240 168.333" stroke-width="10.5"/><path d="M240 96.666l71.666 71.667M383.334 96.666l-71.667 71.667" stroke-width="18.375"/><path d="M455 96.666l-71.666 71.667M25 168.333L96.665 240" stroke-width="6"/><path d="M96.666 168.333L168.333 240" stroke-width="10.5"/><path d="M168.333 168.333L240 240M311.667 168.333L240 240M311.666 168.333L383.333 240" stroke-width="32.156"/><path d="M455 168.333L383.335 240M96.667 240L25 311.665" stroke-width="6"/><path d="M168.334 240l-71.667 71.666" stroke-width="10.5"/><path d="M240 240l-71.666 71.666M240 240l71.666 71.666M383.334 240l-71.667 71.666" stroke-width="32.156"/><path d="M383.333 240L455 311.665M96.667 311.666L25 383.333" stroke-width="6"/><path d="M168.334 311.666l-71.667 71.667" stroke-width="18.375"/><path d="M240 311.666l-71.666 71.667" stroke-width="10.5"/><path d="M311.667 311.666L240 383.333M311.666 311.666l71.667 71.667" stroke-width="18.375"/><path d="M383.333 311.666L455 383.333M96.667 383.333L25 455M168.334 383.333L96.667 455M240 383.333L168.335 455M311.667 383.333L240 455M311.666 383.333L383.333 455M383.333 383.333L455 455" stroke-width="6"/></g></svg>