<?xml version="1.0" encoding="UTF-8" standalone="no"?>
<!DOCTYPE svg PUBLIC "-//W3C//DTD SVG 1.1//EN" "http://www.w3.org/Graphics/SVG/1.1/DTD/svg11.dtd">
<svg width="100%" height="100%" viewBox="0 0 270 120" version="1.1" xmlns="http://www.w3.org/2000/svg" xmlns:xlink="http://www.w3.org/1999/xlink" xml:space="preserve" style="fill-rule:evenodd;clip-rule:evenodd;stroke-linecap:round;">
    <g id="Horizontal" transform="matrix(1,0,0,1,-15,-15)">
        <rect x="0" y="0" width="300" height="150" style="fill:none;"/>
    </g>
    <g transform="matrix(1,0,0,1,-15,-15)">
        <g transform="matrix(2.24063,0,0,2.24063,-265.834,1.18675)">
            <path d="M188.06,20.268L185.588,20.268L185.588,18.312L192.836,18.312L192.836,20.268L190.364,20.268L190.364,26.88L188.06,26.88L188.06,20.268Z" style="fill:white;fill-rule:nonzero;"/>
            <path d="M195.944,18.312L195.944,21.252C196.192,20.948 196.47,20.728 196.778,20.592C197.086,20.456 197.424,20.388 197.792,20.388C198.44,20.388 198.942,20.58 199.298,20.964C199.654,21.348 199.832,21.916 199.832,22.668L199.832,26.88L197.66,26.88L197.66,23.016C197.66,22.688 197.598,22.466 197.474,22.35C197.35,22.234 197.176,22.176 196.952,22.176C196.664,22.176 196.424,22.268 196.232,22.452C196.144,22.54 196.074,22.64 196.022,22.752C195.97,22.864 195.944,23.024 195.944,23.232L195.944,26.88L193.772,26.88L193.772,18.312L195.944,18.312Z" style="fill:white;fill-rule:nonzero;"/>
            <path d="M203.276,18.312L203.276,19.884L201.08,19.884L201.08,18.312L203.276,18.312ZM203.264,20.58L203.264,26.88L201.092,26.88L201.092,20.58L203.264,20.58Z" style="fill:white;fill-rule:nonzero;"/>
            <path d="M206.696,20.58L206.696,21.324C206.952,20.988 207.238,20.748 207.554,20.604C207.87,20.46 208.22,20.388 208.604,20.388C209.252,20.388 209.754,20.578 210.11,20.958C210.466,21.338 210.644,21.908 210.644,22.668L210.644,26.88L208.472,26.88L208.472,23.016C208.472,22.688 208.41,22.466 208.286,22.35C208.162,22.234 207.988,22.176 207.764,22.176C207.476,22.176 207.236,22.268 207.044,22.452C206.956,22.54 206.886,22.64 206.834,22.752C206.782,22.864 206.756,23.024 206.756,23.232L206.756,26.88L204.584,26.88L204.584,20.58L206.696,20.58Z" style="fill:white;fill-rule:nonzero;"/>
            <path d="M214.748,24L214.028,24.66L214.028,26.88L211.904,26.88L211.904,18.312L214.028,18.312L214.028,22.5L216.008,20.58L218.444,20.58L216.224,22.704L218.624,26.88L216.332,26.88L214.748,24Z" style="fill:white;fill-rule:nonzero;"/>
            <path d="M221.504,18.312L221.504,19.884L219.308,19.884L219.308,18.312L221.504,18.312ZM221.492,20.58L221.492,26.88L219.32,26.88L219.32,20.58L221.492,20.58Z" style="fill:white;fill-rule:nonzero;"/>
            <path d="M224.924,20.58L224.924,21.324C225.18,20.988 225.466,20.748 225.782,20.604C226.098,20.46 226.448,20.388 226.832,20.388C227.48,20.388 227.982,20.578 228.338,20.958C228.694,21.338 228.872,21.908 228.872,22.668L228.872,26.88L226.7,26.88L226.7,23.016C226.7,22.688 226.638,22.466 226.514,22.35C226.39,22.234 226.216,22.176 225.992,22.176C225.704,22.176 225.464,22.268 225.272,22.452C225.184,22.54 225.114,22.64 225.062,22.752C225.01,22.864 224.984,23.024 224.984,23.232L224.984,26.88L222.812,26.88L222.812,20.58L224.924,20.58Z" style="fill:white;fill-rule:nonzero;"/>
            <path d="M234.248,25.872C233.816,26.376 233.224,26.628 232.472,26.628C231.664,26.628 231.042,26.364 230.606,25.836C230.17,25.308 229.952,24.564 229.952,23.604C229.952,23.092 230.014,22.638 230.138,22.242C230.262,21.846 230.44,21.51 230.672,21.234C230.904,20.958 231.182,20.748 231.506,20.604C231.83,20.46 232.192,20.388 232.592,20.388C233.336,20.388 233.908,20.652 234.308,21.18L234.308,20.568L236.42,20.568L236.42,26.1C236.42,27.188 236.162,28 235.646,28.536C235.13,29.072 234.312,29.34 233.192,29.34C232.24,29.34 231.52,29.15 231.032,28.77C230.544,28.39 230.268,27.84 230.204,27.12L232.328,27.12C232.36,27.328 232.442,27.488 232.574,27.6C232.706,27.712 232.92,27.768 233.216,27.768C233.44,27.768 233.62,27.734 233.756,27.666C233.892,27.598 233.996,27.494 234.068,27.354C234.14,27.214 234.188,27.042 234.212,26.838C234.236,26.634 234.248,26.4 234.248,26.136L234.248,25.872ZM234.248,23.436C234.248,23.188 234.226,22.988 234.182,22.836C234.138,22.684 234.076,22.56 233.996,22.464C233.9,22.344 233.784,22.256 233.648,22.2C233.512,22.144 233.364,22.116 233.204,22.116C232.9,22.116 232.648,22.224 232.448,22.44C232.248,22.656 232.148,23.008 232.148,23.496C232.148,23.976 232.246,24.324 232.442,24.54C232.638,24.756 232.888,24.864 233.192,24.864C233.528,24.864 233.796,24.74 233.996,24.492C234.164,24.292 234.248,23.992 234.248,23.592L234.248,23.436Z" style="fill:white;fill-rule:nonzero;"/>
            <path d="M192.956,38.88L192.956,34.164L191.432,38.88L189.752,38.88L188.228,34.14L188.228,38.88L186.104,38.88L186.104,30.312L188.78,30.312L190.616,36.048L192.464,30.312L195.128,30.312L195.128,38.88L192.956,38.88Z" style="fill:white;fill-rule:nonzero;"/>
            <path d="M200.18,36.216L199.484,36.252C199.028,36.276 198.718,36.352 198.554,36.48C198.39,36.608 198.308,36.776 198.308,36.984C198.308,37.192 198.37,37.34 198.494,37.428C198.618,37.516 198.792,37.56 199.016,37.56C199.352,37.56 199.63,37.466 199.85,37.278C200.07,37.09 200.18,36.808 200.18,36.432L200.18,36.216ZM200.252,38.88L200.252,38.196C199.996,38.468 199.718,38.678 199.418,38.826C199.118,38.974 198.76,39.048 198.344,39.048C198.064,39.048 197.796,39.012 197.54,38.94C197.284,38.868 197.058,38.754 196.862,38.598C196.666,38.442 196.51,38.246 196.394,38.01C196.278,37.774 196.22,37.488 196.22,37.152C196.22,36.768 196.298,36.446 196.454,36.186C196.61,35.926 196.824,35.714 197.096,35.55C197.368,35.386 197.688,35.266 198.056,35.19C198.424,35.114 198.82,35.064 199.244,35.04L200.192,34.992L200.192,34.74C200.192,34.428 200.116,34.212 199.964,34.092C199.812,33.972 199.62,33.912 199.388,33.912C198.892,33.912 198.608,34.12 198.536,34.536L196.58,34.38C196.692,33.708 196.992,33.208 197.48,32.88C197.968,32.552 198.636,32.388 199.484,32.388C200.012,32.388 200.454,32.45 200.81,32.574C201.166,32.698 201.452,32.872 201.668,33.096C201.884,33.32 202.04,33.59 202.136,33.906C202.232,34.222 202.28,34.576 202.28,34.968L202.28,38.88L200.252,38.88Z" style="fill:white;fill-rule:nonzero;"/>
            <path d="M209.432,36.456C209.392,36.84 209.308,37.194 209.18,37.518C209.052,37.842 208.868,38.118 208.628,38.346C208.388,38.574 208.09,38.752 207.734,38.88C207.378,39.008 206.96,39.072 206.48,39.072C205.936,39.072 205.464,38.99 205.064,38.826C204.664,38.662 204.338,38.438 204.086,38.154C203.834,37.87 203.644,37.524 203.516,37.116C203.388,36.708 203.324,36.264 203.324,35.784C203.324,35.256 203.396,34.782 203.54,34.362C203.684,33.942 203.892,33.586 204.164,33.294C204.436,33.002 204.772,32.778 205.172,32.622C205.572,32.466 206.028,32.388 206.54,32.388C207.004,32.388 207.404,32.45 207.74,32.574C208.076,32.698 208.358,32.866 208.586,33.078C208.814,33.29 208.992,33.54 209.12,33.828C209.248,34.116 209.328,34.42 209.36,34.74L207.284,34.944C207.252,34.72 207.176,34.526 207.056,34.362C206.936,34.198 206.744,34.116 206.48,34.116C206.152,34.116 205.91,34.252 205.754,34.524C205.598,34.796 205.52,35.2 205.52,35.736C205.52,36.24 205.594,36.632 205.742,36.912C205.89,37.192 206.136,37.332 206.48,37.332C206.984,37.332 207.268,37.04 207.332,36.456L209.432,36.456Z" style="fill:white;fill-rule:nonzero;"/>
            <path d="M212.6,30.312L212.6,33.252C212.848,32.948 213.126,32.728 213.434,32.592C213.742,32.456 214.08,32.388 214.448,32.388C215.096,32.388 215.598,32.58 215.954,32.964C216.31,33.348 216.488,33.916 216.488,34.668L216.488,38.88L214.316,38.88L214.316,35.016C214.316,34.688 214.254,34.466 214.13,34.35C214.006,34.234 213.832,34.176 213.608,34.176C213.32,34.176 213.08,34.268 212.888,34.452C212.8,34.54 212.73,34.64 212.678,34.752C212.626,34.864 212.6,35.024 212.6,35.232L212.6,38.88L210.428,38.88L210.428,30.312L212.6,30.312Z" style="fill:white;fill-rule:nonzero;"/>
            <path d="M219.932,30.312L219.932,31.884L217.736,31.884L217.736,30.312L219.932,30.312ZM219.92,32.58L219.92,38.88L217.748,38.88L217.748,32.58L219.92,32.58Z" style="fill:white;fill-rule:nonzero;"/>
            <path d="M223.352,32.58L223.352,33.324C223.608,32.988 223.894,32.748 224.21,32.604C224.526,32.46 224.876,32.388 225.26,32.388C225.908,32.388 226.41,32.578 226.766,32.958C227.122,33.338 227.3,33.908 227.3,34.668L227.3,38.88L225.128,38.88L225.128,35.016C225.128,34.688 225.066,34.466 224.942,34.35C224.818,34.234 224.644,34.176 224.42,34.176C224.132,34.176 223.892,34.268 223.7,34.452C223.612,34.54 223.542,34.64 223.49,34.752C223.438,34.864 223.412,35.024 223.412,35.232L223.412,38.88L221.24,38.88L221.24,32.58L223.352,32.58Z" style="fill:white;fill-rule:nonzero;"/>
            <path d="M234.62,36.24L230.468,36.24C230.508,36.696 230.61,37.022 230.774,37.218C230.938,37.414 231.196,37.512 231.548,37.512C232.092,37.512 232.424,37.292 232.544,36.852L234.572,36.852C234.444,37.596 234.124,38.152 233.612,38.52C233.1,38.888 232.42,39.072 231.572,39.072C230.516,39.072 229.72,38.792 229.184,38.232C228.648,37.672 228.38,36.872 228.38,35.832C228.38,35.28 228.456,34.79 228.608,34.362C228.76,33.934 228.974,33.574 229.25,33.282C229.526,32.99 229.862,32.768 230.258,32.616C230.654,32.464 231.1,32.388 231.596,32.388C232.092,32.388 232.528,32.462 232.904,32.61C233.28,32.758 233.596,32.97 233.852,33.246C234.108,33.522 234.3,33.856 234.428,34.248C234.556,34.64 234.62,35.076 234.62,35.556L234.62,36.24ZM231.596,33.924C231.228,33.924 230.956,34.02 230.78,34.212C230.604,34.404 230.5,34.668 230.468,35.004L232.616,35.004C232.6,34.62 232.51,34.344 232.346,34.176C232.182,34.008 231.932,33.924 231.596,33.924Z" style="fill:white;fill-rule:nonzero;"/>
            <path d="M237.476,36.864C237.524,37.112 237.636,37.282 237.812,37.374C237.988,37.466 238.212,37.512 238.484,37.512C238.764,37.512 238.964,37.472 239.084,37.392C239.204,37.312 239.264,37.188 239.264,37.02C239.264,36.892 239.222,36.788 239.138,36.708C239.054,36.628 238.892,36.568 238.652,36.528L237.92,36.408C237.104,36.272 236.506,36.048 236.126,35.736C235.746,35.424 235.556,34.992 235.556,34.44C235.556,33.768 235.802,33.258 236.294,32.91C236.786,32.562 237.48,32.388 238.376,32.388C238.88,32.388 239.308,32.44 239.66,32.544C240.012,32.648 240.302,32.79 240.53,32.97C240.758,33.15 240.932,33.356 241.052,33.588C241.172,33.82 241.256,34.06 241.304,34.308L239.3,34.512C239.252,34.296 239.16,34.134 239.024,34.026C238.888,33.918 238.672,33.864 238.376,33.864C238.096,33.864 237.896,33.91 237.776,34.002C237.656,34.094 237.596,34.208 237.596,34.344C237.596,34.472 237.646,34.572 237.746,34.644C237.846,34.716 238.036,34.776 238.316,34.824L239.036,34.956C239.484,35.036 239.858,35.136 240.158,35.256C240.458,35.376 240.698,35.516 240.878,35.676C241.058,35.836 241.186,36.022 241.262,36.234C241.338,36.446 241.376,36.684 241.376,36.948C241.376,37.652 241.14,38.182 240.668,38.538C240.196,38.894 239.476,39.072 238.508,39.072C238.124,39.072 237.752,39.038 237.392,38.97C237.032,38.902 236.71,38.784 236.426,38.616C236.142,38.448 235.91,38.222 235.73,37.938C235.55,37.654 235.448,37.296 235.424,36.864L237.476,36.864Z" style="fill:white;fill-rule:nonzero;"/>
            <path d="M187.081,46.34L187.637,46.34C188.039,46.34 188.334,46.223 188.521,45.987C188.709,45.752 188.803,45.419 188.803,44.989C188.803,44.56 188.716,44.232 188.542,44.005C188.368,43.779 188.089,43.666 187.705,43.666L187.081,43.666L187.081,46.34ZM185.765,47.451L185.765,42.555L187.692,42.555C188.505,42.555 189.121,42.759 189.54,43.165C189.958,43.572 190.167,44.167 190.167,44.948C190.167,45.753 189.947,46.371 189.505,46.803C189.064,47.235 188.435,47.451 187.616,47.451L185.765,47.451Z" style="fill:white;fill-rule:nonzero;"/>
            <path d="M192.821,45.929L192.423,45.949C192.163,45.963 191.985,46.007 191.892,46.08C191.798,46.153 191.751,46.249 191.751,46.368C191.751,46.487 191.787,46.571 191.857,46.621C191.928,46.672 192.028,46.697 192.156,46.697C192.348,46.697 192.507,46.643 192.632,46.536C192.758,46.428 192.821,46.267 192.821,46.052L192.821,45.929ZM192.862,47.451L192.862,47.06C192.716,47.216 192.557,47.336 192.385,47.42C192.214,47.505 192.009,47.547 191.772,47.547C191.612,47.547 191.459,47.527 191.312,47.485C191.166,47.444 191.037,47.379 190.925,47.29C190.813,47.201 190.724,47.089 190.657,46.954C190.591,46.819 190.558,46.656 190.558,46.464C190.558,46.244 190.603,46.06 190.692,45.912C190.781,45.763 190.903,45.642 191.059,45.548C191.214,45.455 191.397,45.386 191.607,45.343C191.817,45.299 192.044,45.271 192.286,45.257L192.828,45.229L192.828,45.085C192.828,44.907 192.784,44.784 192.697,44.715C192.611,44.647 192.501,44.612 192.368,44.612C192.085,44.612 191.923,44.731 191.881,44.969L190.764,44.88C190.828,44.496 190.999,44.21 191.278,44.023C191.557,43.835 191.939,43.741 192.423,43.741C192.725,43.741 192.977,43.777 193.181,43.848C193.384,43.919 193.548,44.018 193.671,44.146C193.795,44.274 193.884,44.428 193.939,44.609C193.993,44.789 194.021,44.992 194.021,45.216L194.021,47.451L192.862,47.451Z" style="fill:white;fill-rule:nonzero;"/>
            <path d="M194.967,44.818L194.391,44.818L194.391,43.851L194.967,43.851L194.967,42.905L196.208,42.905L196.208,43.851L196.99,43.851L196.99,44.818L196.208,44.818L196.208,46.1C196.208,46.265 196.245,46.376 196.318,46.433C196.391,46.49 196.492,46.519 196.62,46.519C196.725,46.519 196.839,46.505 196.963,46.477L197.12,47.383C196.841,47.469 196.558,47.513 196.27,47.513C195.799,47.513 195.464,47.403 195.265,47.184C195.067,46.964 194.967,46.621 194.967,46.155L194.967,44.818Z" style="fill:white;fill-rule:nonzero;"/>
            <path d="M199.699,45.929L199.301,45.949C199.04,45.963 198.863,46.007 198.769,46.08C198.676,46.153 198.629,46.249 198.629,46.368C198.629,46.487 198.664,46.571 198.735,46.621C198.806,46.672 198.905,46.697 199.033,46.697C199.225,46.697 199.384,46.643 199.51,46.536C199.636,46.428 199.699,46.267 199.699,46.052L199.699,45.929ZM199.74,47.451L199.74,47.06C199.593,47.216 199.435,47.336 199.263,47.42C199.092,47.505 198.887,47.547 198.649,47.547C198.489,47.547 198.336,47.527 198.19,47.485C198.044,47.444 197.915,47.379 197.803,47.29C197.691,47.201 197.601,47.089 197.535,46.954C197.469,46.819 197.436,46.656 197.436,46.464C197.436,46.244 197.48,46.06 197.569,45.912C197.659,45.763 197.781,45.642 197.936,45.548C198.092,45.455 198.275,45.386 198.485,45.343C198.695,45.299 198.921,45.271 199.164,45.257L199.705,45.229L199.705,45.085C199.705,44.907 199.662,44.784 199.575,44.715C199.488,44.647 199.379,44.612 199.246,44.612C198.963,44.612 198.8,44.731 198.759,44.969L197.641,44.88C197.705,44.496 197.877,44.21 198.156,44.023C198.435,43.835 198.816,43.741 199.301,43.741C199.603,43.741 199.855,43.777 200.059,43.848C200.262,43.919 200.425,44.018 200.549,44.146C200.672,44.274 200.761,44.428 200.816,44.609C200.871,44.789 200.899,44.992 200.899,45.216L200.899,47.451L199.74,47.451Z" style="fill:white;fill-rule:nonzero;"/>
            <path d="M204.211,45.84C204.238,46.068 204.323,46.239 204.464,46.351C204.606,46.463 204.814,46.519 205.088,46.519C205.321,46.519 205.496,46.477 205.613,46.395C205.729,46.313 205.788,46.196 205.788,46.045C205.788,45.931 205.749,45.836 205.671,45.761C205.593,45.685 205.452,45.627 205.246,45.586L204.595,45.463C204.051,45.362 203.648,45.193 203.388,44.955C203.127,44.717 202.997,44.388 202.997,43.968C202.997,43.46 203.172,43.077 203.521,42.819C203.871,42.561 204.352,42.432 204.965,42.432C205.321,42.432 205.625,42.473 205.877,42.555C206.128,42.637 206.334,42.747 206.494,42.884C206.654,43.021 206.775,43.18 206.857,43.361C206.94,43.541 206.992,43.73 207.015,43.927L205.74,44.057C205.699,43.86 205.62,43.714 205.503,43.618C205.387,43.522 205.205,43.474 204.958,43.474C204.734,43.474 204.568,43.512 204.461,43.587C204.353,43.663 204.3,43.764 204.3,43.892C204.3,44.007 204.343,44.098 204.43,44.167C204.517,44.235 204.656,44.288 204.848,44.324L205.513,44.455C206.089,44.569 206.499,44.753 206.741,45.007C206.983,45.26 207.104,45.581 207.104,45.97C207.104,46.212 207.063,46.432 206.981,46.628C206.899,46.825 206.773,46.993 206.604,47.132C206.435,47.272 206.22,47.38 205.959,47.458C205.699,47.536 205.392,47.575 205.04,47.575C203.683,47.565 202.969,46.987 202.901,45.84L204.211,45.84Z" style="fill:white;fill-rule:nonzero;"/>
            <path d="M211.109,46.066C211.086,46.285 211.038,46.488 210.965,46.673C210.892,46.858 210.787,47.016 210.649,47.146C210.512,47.276 210.342,47.378 210.139,47.451C209.935,47.524 209.696,47.561 209.422,47.561C209.111,47.561 208.841,47.514 208.613,47.42C208.384,47.327 208.198,47.199 208.054,47.036C207.91,46.874 207.801,46.676 207.728,46.443C207.655,46.21 207.619,45.956 207.619,45.682C207.619,45.38 207.66,45.109 207.742,44.869C207.824,44.629 207.943,44.426 208.099,44.259C208.254,44.092 208.446,43.964 208.675,43.875C208.903,43.786 209.164,43.741 209.456,43.741C209.721,43.741 209.95,43.777 210.142,43.848C210.334,43.919 210.495,44.015 210.625,44.136C210.756,44.257 210.857,44.4 210.931,44.564C211.004,44.729 211.049,44.903 211.068,45.085L209.881,45.202C209.863,45.074 209.82,44.963 209.751,44.869C209.683,44.776 209.573,44.729 209.422,44.729C209.235,44.729 209.096,44.807 209.007,44.962C208.918,45.117 208.873,45.348 208.873,45.655C208.873,45.943 208.916,46.167 209,46.327C209.085,46.487 209.225,46.567 209.422,46.567C209.71,46.567 209.872,46.4 209.909,46.066L211.109,46.066Z" style="fill:white;fill-rule:nonzero;"/>
            <path d="M212.926,42.555L212.926,43.453L211.671,43.453L211.671,42.555L212.926,42.555ZM212.919,43.851L212.919,47.451L211.678,47.451L211.678,43.851L212.919,43.851Z" style="fill:white;fill-rule:nonzero;"/>
            <path d="M217.116,45.943L214.743,45.943C214.766,46.203 214.824,46.389 214.918,46.501C215.012,46.613 215.159,46.669 215.36,46.669C215.671,46.669 215.861,46.544 215.929,46.292L217.088,46.292C217.015,46.717 216.832,47.035 216.54,47.245C216.247,47.456 215.859,47.561 215.374,47.561C214.771,47.561 214.316,47.401 214.009,47.081C213.703,46.761 213.55,46.304 213.55,45.709C213.55,45.394 213.593,45.114 213.68,44.869C213.767,44.625 213.889,44.419 214.047,44.252C214.205,44.085 214.397,43.959 214.623,43.872C214.849,43.785 215.104,43.741 215.388,43.741C215.671,43.741 215.92,43.784 216.135,43.868C216.35,43.953 216.531,44.074 216.677,44.232C216.823,44.389 216.933,44.58 217.006,44.804C217.079,45.028 217.116,45.277 217.116,45.552L217.116,45.943ZM215.388,44.619C215.177,44.619 215.022,44.674 214.921,44.784C214.821,44.893 214.761,45.044 214.743,45.236L215.971,45.236C215.961,45.017 215.91,44.859 215.816,44.763C215.723,44.667 215.58,44.619 215.388,44.619Z" style="fill:white;fill-rule:nonzero;"/>
            <path d="M218.953,43.851L218.953,44.276C219.1,44.084 219.263,43.947 219.444,43.865C219.624,43.783 219.824,43.741 220.044,43.741C220.414,43.741 220.701,43.85 220.904,44.067C221.108,44.284 221.209,44.61 221.209,45.044L221.209,47.451L219.968,47.451L219.968,45.243C219.968,45.056 219.933,44.929 219.862,44.863C219.791,44.796 219.692,44.763 219.564,44.763C219.399,44.763 219.262,44.816 219.152,44.921C219.102,44.971 219.062,45.028 219.032,45.092C219.003,45.156 218.988,45.248 218.988,45.367L218.988,47.451L217.747,47.451L217.747,43.851L218.953,43.851Z" style="fill:white;fill-rule:nonzero;"/>
            <path d="M225.317,46.066C225.294,46.285 225.246,46.488 225.173,46.673C225.1,46.858 224.995,47.016 224.857,47.146C224.72,47.276 224.55,47.378 224.347,47.451C224.143,47.524 223.904,47.561 223.63,47.561C223.319,47.561 223.049,47.514 222.821,47.42C222.592,47.327 222.406,47.199 222.262,47.036C222.118,46.874 222.009,46.676 221.936,46.443C221.863,46.21 221.827,45.956 221.827,45.682C221.827,45.38 221.868,45.109 221.95,44.869C222.032,44.629 222.151,44.426 222.307,44.259C222.462,44.092 222.654,43.964 222.883,43.875C223.111,43.786 223.372,43.741 223.664,43.741C223.929,43.741 224.158,43.777 224.35,43.848C224.542,43.919 224.703,44.015 224.833,44.136C224.964,44.257 225.065,44.4 225.139,44.564C225.212,44.729 225.257,44.903 225.276,45.085L224.089,45.202C224.071,45.074 224.028,44.963 223.959,44.869C223.891,44.776 223.781,44.729 223.63,44.729C223.443,44.729 223.304,44.807 223.215,44.962C223.126,45.117 223.081,45.348 223.081,45.655C223.081,45.943 223.124,46.167 223.208,46.327C223.293,46.487 223.433,46.567 223.63,46.567C223.918,46.567 224.08,46.4 224.117,46.066L225.317,46.066Z" style="fill:white;fill-rule:nonzero;"/>
            <path d="M229.349,45.943L226.976,45.943C226.999,46.203 227.057,46.389 227.151,46.501C227.245,46.613 227.392,46.669 227.593,46.669C227.904,46.669 228.094,46.544 228.163,46.292L229.321,46.292C229.248,46.717 229.065,47.035 228.773,47.245C228.48,47.456 228.092,47.561 227.607,47.561C227.004,47.561 226.549,47.401 226.243,47.081C225.936,46.761 225.783,46.304 225.783,45.709C225.783,45.394 225.827,45.114 225.913,44.869C226,44.625 226.123,44.419 226.28,44.252C226.438,44.085 226.63,43.959 226.856,43.872C227.083,43.785 227.337,43.741 227.621,43.741C227.904,43.741 228.153,43.784 228.368,43.868C228.583,43.953 228.764,44.074 228.91,44.232C229.056,44.389 229.166,44.58 229.239,44.804C229.312,45.028 229.349,45.277 229.349,45.552L229.349,45.943ZM227.621,44.619C227.411,44.619 227.255,44.674 227.155,44.784C227.054,44.893 226.995,45.044 226.976,45.236L228.204,45.236C228.195,45.017 228.143,44.859 228.049,44.763C227.956,44.667 227.813,44.619 227.621,44.619Z" style="fill:white;fill-rule:nonzero;"/>
        </g>
        <g id="logo" transform="matrix(0.232557,0,0,0.232557,19.1863,19.1864)">
            <g id="two_1" transform="matrix(1,0,0,1,60.833,60.833)">
                <path d="M-35.834,-35.834L35.833,35.833" style="fill:white;fill-rule:nonzero;stroke:white;stroke-width:6px;"/>
            </g>
            <g id="two_2" transform="matrix(1,0,0,1,132.5,60.833)">
                <path d="M-35.834,-35.834L35.833,35.833" style="fill:white;fill-rule:nonzero;stroke:white;stroke-width:6px;"/>
            </g>
            <g id="two_3" transform="matrix(1,0,0,1,204.167,60.833)">
                <path d="M-35.834,-35.834L35.833,35.833" style="fill:white;fill-rule:nonzero;stroke:white;stroke-width:6px;"/>
            </g>
            <g id="two_4" transform="matrix(1,0,0,1,275.833,60.833)">
                <path d="M-35.834,-35.834L35.833,35.833" style="fill:white;fill-rule:nonzero;stroke:white;stroke-width:6px;"/>
            </g>
            <g id="two_5" transform="matrix(0,1,-1,0,347.5,60.833)">
                <path d="M-35.834,-35.834L35.833,35.833" style="fill:white;fill-rule:nonzero;stroke:white;stroke-width:6px;"/>
            </g>
            <g id="two_6" transform="matrix(0,1,-1,0,419.167,60.833)">
                <path d="M-35.834,-35.834L35.833,35.833" style="fill:white;fill-rule:nonzero;stroke:white;stroke-width:6px;"/>
            </g>
            <g id="two_7" transform="matrix(1,0,0,1,60.833,132.5)">
                <path d="M-35.834,-35.834L35.833,35.833" style="fill:white;fill-rule:nonzero;stroke:white;stroke-width:6px;"/>
            </g>
            <g id="two_8" transform="matrix(1,0,0,1,132.5,132.5)">
                <path d="M-35.834,-35.834L35.833,35.833" style="fill:white;fill-rule:nonzero;"/>
                <path d="M-35.202,-45L-34.698,-44.951L-34.197,-44.874L-33.702,-44.771L-33.212,-44.64L-32.731,-44.482L-32.26,-44.298L-31.799,-44.088L-31.35,-43.853L-30.915,-43.594L-30.495,-43.311L-30.092,-43.006L-29.705,-42.679L-29.337,-42.331L42.33,29.336L42.678,29.704L43.005,30.091L43.31,30.494L43.593,30.914L43.852,31.349L44.087,31.798L44.297,32.259L44.481,32.73L44.639,33.211L44.77,33.701L44.873,34.196L44.95,34.697L44.999,35.201L45.02,35.706L45.013,36.213L44.978,36.718L44.915,37.22L44.825,37.718L44.707,38.211L44.563,38.696L44.392,39.173L44.195,39.639L43.973,40.094L43.726,40.536L43.454,40.964L43.16,41.376L42.844,41.771L42.506,42.148L42.148,42.506L41.771,42.844L41.376,43.16L40.964,43.455L40.536,43.726L40.094,43.973L39.639,44.195L39.173,44.392L38.696,44.563L38.211,44.707L37.718,44.825L37.22,44.915L36.718,44.978L36.213,45.013L35.706,45.02L35.201,44.999L34.697,44.95L34.196,44.874L33.701,44.77L33.211,44.639L32.73,44.481L32.259,44.297L31.798,44.087L31.349,43.852L30.914,43.593L30.494,43.31L30.091,43.005L29.704,42.678L29.336,42.33L-42.331,-29.337L-42.679,-29.705L-43.006,-30.092L-43.311,-30.495L-43.594,-30.915L-43.853,-31.35L-44.088,-31.799L-44.298,-32.26L-44.482,-32.731L-44.64,-33.212L-44.771,-33.702L-44.874,-34.197L-44.951,-34.698L-45,-35.202L-45.021,-35.707L-45.014,-36.214L-44.979,-36.719L-44.916,-37.221L-44.826,-37.719L-44.708,-38.212L-44.564,-38.697L-44.393,-39.174L-44.196,-39.64L-43.974,-40.095L-43.727,-40.537L-43.455,-40.965L-43.161,-41.377L-42.845,-41.772L-42.507,-42.149L-42.149,-42.507L-41.772,-42.845L-41.377,-43.161L-40.965,-43.455L-40.537,-43.727L-40.095,-43.974L-39.64,-44.196L-39.174,-44.393L-38.697,-44.564L-38.212,-44.708L-37.719,-44.826L-37.221,-44.916L-36.719,-44.979L-36.214,-45.014L-35.707,-45.021L-35.202,-45Z" style="fill:white;"/>
            </g>
            <g id="two_9" transform="matrix(1,0,0,1,204.167,132.5)">
                <path d="M-35.834,-35.834L35.833,35.833" style="fill:white;fill-rule:nonzero;stroke:white;stroke-width:10.5px;"/>
            </g>
            <g id="two_10" transform="matrix(1,0,0,1,275.833,132.5)">
                <path d="M-35.834,-35.834L35.833,35.833" style="fill:white;fill-rule:nonzero;"/>
                <path d="M-35.202,-45L-34.698,-44.951L-34.197,-44.874L-33.702,-44.771L-33.212,-44.64L-32.731,-44.482L-32.26,-44.298L-31.799,-44.088L-31.35,-43.853L-30.915,-43.594L-30.495,-43.311L-30.092,-43.006L-29.705,-42.679L-29.337,-42.331L42.33,29.336L42.678,29.704L43.005,30.091L43.31,30.494L43.593,30.914L43.852,31.349L44.087,31.798L44.297,32.259L44.481,32.73L44.639,33.211L44.77,33.701L44.873,34.196L44.95,34.697L44.999,35.201L45.02,35.706L45.013,36.213L44.978,36.718L44.915,37.22L44.825,37.718L44.707,38.211L44.563,38.696L44.392,39.173L44.195,39.639L43.973,40.094L43.726,40.536L43.454,40.964L43.16,41.376L42.844,41.771L42.506,42.148L42.148,42.506L41.771,42.844L41.376,43.16L40.964,43.455L40.536,43.726L40.094,43.973L39.639,44.195L39.173,44.392L38.696,44.563L38.211,44.707L37.718,44.825L37.22,44.915L36.718,44.978L36.213,45.013L35.706,45.02L35.201,44.999L34.697,44.95L34.196,44.874L33.701,44.77L33.211,44.639L32.73,44.481L32.259,44.297L31.798,44.087L31.349,43.852L30.914,43.593L30.494,43.31L30.091,43.005L29.704,42.678L29.336,42.33L-42.331,-29.337L-42.679,-29.705L-43.006,-30.092L-43.311,-30.495L-43.594,-30.915L-43.853,-31.35L-44.088,-31.799L-44.298,-32.26L-44.482,-32.731L-44.64,-33.212L-44.771,-33.702L-44.875,-34.197L-44.951,-34.698L-45,-35.202L-45.021,-35.707L-45.014,-36.214L-44.979,-36.719L-44.916,-37.221L-44.826,-37.719L-44.708,-38.212L-44.564,-38.697L-44.393,-39.174L-44.196,-39.64L-43.974,-40.095L-43.727,-40.537L-43.456,-40.965L-43.161,-41.377L-42.845,-41.772L-42.507,-42.149L-42.149,-42.507L-41.772,-42.845L-41.377,-43.161L-40.965,-43.455L-40.537,-43.727L-40.095,-43.974L-39.64,-44.196L-39.174,-44.393L-38.697,-44.564L-38.212,-44.708L-37.719,-44.826L-37.221,-44.916L-36.719,-44.979L-36.214,-45.014L-35.707,-45.021L-35.202,-45Z" style="fill:white;"/>
            </g>
            <g id="two_11" transform="matrix(0,1,-1,0,347.5,132.5)">
                <path d="M-35.834,-35.834L35.833,35.833" style="fill:white;fill-rule:nonzero;"/>
                <path d="M-45.014,-36.214L-44.979,-36.719L-44.916,-37.221L-44.826,-37.719L-44.708,-38.212L-44.564,-38.697L-44.393,-39.174L-44.196,-39.64L-43.974,-40.095L-43.727,-40.537L-43.455,-40.965L-43.161,-41.377L-42.845,-41.772L-42.507,-42.149L-42.149,-42.507L-41.772,-42.845L-41.377,-43.161L-40.965,-43.455L-40.537,-43.727L-40.095,-43.974L-39.64,-44.196L-39.174,-44.393L-38.697,-44.564L-38.212,-44.708L-37.719,-44.826L-37.221,-44.916L-36.719,-44.979L-36.214,-45.014L-35.707,-45.021L-35.202,-45L-34.698,-44.951L-34.197,-44.874L-33.702,-44.771L-33.212,-44.64L-32.731,-44.482L-32.26,-44.298L-31.799,-44.088L-31.35,-43.853L-30.915,-43.594L-30.495,-43.311L-30.092,-43.006L-29.705,-42.679L-29.337,-42.331L42.33,29.336L42.678,29.704L43.005,30.091L43.31,30.494L43.593,30.914L43.852,31.349L44.087,31.798L44.297,32.259L44.481,32.73L44.639,33.211L44.77,33.701L44.874,34.196L44.95,34.697L44.999,35.201L45.02,35.706L45.013,36.213L44.978,36.718L44.915,37.22L44.825,37.718L44.707,38.211L44.563,38.696L44.392,39.173L44.195,39.639L43.973,40.094L43.726,40.536L43.455,40.964L43.16,41.376L42.844,41.771L42.506,42.148L42.148,42.506L41.771,42.844L41.376,43.16L40.964,43.454L40.536,43.726L40.094,43.973L39.639,44.195L39.173,44.392L38.696,44.563L38.211,44.707L37.718,44.825L37.22,44.915L36.718,44.978L36.213,45.013L35.706,45.02L35.201,44.999L34.697,44.95L34.196,44.873L33.701,44.77L33.211,44.639L32.73,44.481L32.259,44.297L31.798,44.087L31.349,43.852L30.914,43.593L30.494,43.31L30.091,43.005L29.704,42.678L29.336,42.33L-42.331,-29.337L-42.679,-29.705L-43.006,-30.092L-43.311,-30.495L-43.594,-30.915L-43.853,-31.35L-44.088,-31.799L-44.298,-32.26L-44.482,-32.731L-44.64,-33.212L-44.771,-33.702L-44.874,-34.197L-44.951,-34.698L-45,-35.202L-45.021,-35.707L-45.014,-36.214Z" style="fill:white;"/>
            </g>
            <g id="two_12" transform="matrix(0,1,-1,0,419.167,132.5)">
                <path d="M-35.834,-35.834L35.833,35.833" style="fill:white;fill-rule:nonzero;stroke:white;stroke-width:6px;"/>
            </g>
            <g id="two_13" transform="matrix(1,0,0,1,60.833,204.167)">
                <path d="M-35.834,-35.834L35.833,35.833" style="fill:white;fill-rule:nonzero;stroke:white;stroke-width:6px;"/>
            </g>
            <g id="two_14" transform="matrix(1,0,0,1,132.5,204.167)">
                <path d="M-35.834,-35.834L35.833,35.833" style="fill:white;fill-rule:nonzero;stroke:white;stroke-width:10.5px;"/>
            </g>
            <g id="two_15" transform="matrix(1,0,0,1,204.167,204.167)">
                <path d="M-35.834,-35.834L35.833,35.833" style="fill:white;fill-rule:nonzero;"/>
                <path d="M-35.329,-51.904L-34.656,-51.869L-33.986,-51.806L-33.319,-51.714L-32.656,-51.595L-31.999,-51.448L-31.348,-51.274L-30.706,-51.072L-30.072,-50.844L-29.449,-50.59L-28.836,-50.309L-28.236,-50.004L-27.65,-49.673L-27.077,-49.318L-26.52,-48.94L-25.98,-48.538L-25.456,-48.114L-24.951,-47.669L-24.465,-47.203L47.202,24.464L47.668,24.95L48.113,25.455L48.537,25.979L48.939,26.519L49.317,27.076L49.672,27.649L50.003,28.235L50.308,28.835L50.589,29.448L50.843,30.071L51.071,30.705L51.273,31.347L51.447,31.998L51.594,32.655L51.713,33.318L51.805,33.985L51.868,34.655L51.903,35.328L51.91,36.001L51.889,36.674L51.84,37.346L51.762,38.015L51.657,38.68L51.524,39.34L51.363,39.994L51.175,40.641L50.961,41.279L50.719,41.908L50.452,42.526L50.159,43.132L49.84,43.726L49.498,44.305L49.131,44.87L48.741,45.419L48.328,45.951L47.893,46.466L47.438,46.961L46.961,47.438L46.466,47.893L45.951,48.328L45.419,48.741L44.87,49.131L44.305,49.498L43.726,49.84L43.132,50.159L42.526,50.452L41.908,50.719L41.279,50.961L40.641,51.175L39.994,51.363L39.34,51.524L38.68,51.657L38.015,51.762L37.346,51.84L36.674,51.889L36.001,51.91L35.328,51.903L34.655,51.868L33.985,51.805L33.318,51.713L32.655,51.594L31.998,51.447L31.347,51.273L30.705,51.071L30.071,50.843L29.448,50.589L28.835,50.308L28.235,50.003L27.649,49.672L27.076,49.317L26.519,48.939L25.979,48.537L25.455,48.113L24.95,47.668L24.464,47.202L-47.203,-24.465L-47.669,-24.951L-48.114,-25.456L-48.538,-25.98L-48.94,-26.52L-49.318,-27.077L-49.673,-27.65L-50.004,-28.236L-50.309,-28.836L-50.59,-29.449L-50.844,-30.072L-51.072,-30.706L-51.274,-31.348L-51.448,-31.999L-51.595,-32.656L-51.714,-33.319L-51.806,-33.986L-51.869,-34.656L-51.904,-35.329L-51.911,-36.002L-51.89,-36.675L-51.841,-37.347L-51.763,-38.016L-51.658,-38.681L-51.525,-39.341L-51.364,-39.995L-51.176,-40.642L-50.962,-41.28L-50.72,-41.909L-50.453,-42.527L-50.16,-43.133L-49.841,-43.727L-49.499,-44.306L-49.132,-44.871L-48.742,-45.42L-48.329,-45.952L-47.894,-46.467L-47.439,-46.962L-46.962,-47.439L-46.467,-47.894L-45.952,-48.329L-45.42,-48.742L-44.871,-49.132L-44.306,-49.499L-43.727,-49.841L-43.133,-50.16L-42.527,-50.453L-41.909,-50.72L-41.28,-50.962L-40.642,-51.176L-39.995,-51.364L-39.341,-51.525L-38.681,-51.658L-38.016,-51.763L-37.347,-51.841L-36.675,-51.89L-36.002,-51.911L-35.329,-51.904Z" style="fill:white;"/>
            </g>
            <g id="two_16" transform="matrix(0,1,-1,0,275.833,204.167)">
                <path d="M-35.834,-35.834L35.833,35.833" style="fill:white;fill-rule:nonzero;"/>
                <path d="M-51.89,-36.675L-51.841,-37.347L-51.763,-38.016L-51.658,-38.681L-51.525,-39.341L-51.364,-39.995L-51.176,-40.642L-50.962,-41.28L-50.72,-41.909L-50.453,-42.527L-50.16,-43.133L-49.841,-43.727L-49.499,-44.306L-49.132,-44.871L-48.742,-45.42L-48.329,-45.952L-47.894,-46.467L-47.439,-46.962L-46.962,-47.439L-46.467,-47.894L-45.952,-48.329L-45.42,-48.742L-44.871,-49.132L-44.306,-49.499L-43.727,-49.841L-43.133,-50.16L-42.527,-50.453L-41.909,-50.72L-41.28,-50.962L-40.642,-51.176L-39.995,-51.364L-39.341,-51.525L-38.681,-51.658L-38.016,-51.763L-37.347,-51.841L-36.675,-51.89L-36.002,-51.911L-35.329,-51.904L-34.656,-51.869L-33.986,-51.806L-33.319,-51.714L-32.656,-51.595L-31.999,-51.448L-31.348,-51.274L-30.706,-51.072L-30.072,-50.844L-29.449,-50.59L-28.836,-50.309L-28.236,-50.004L-27.65,-49.673L-27.077,-49.318L-26.52,-48.94L-25.98,-48.538L-25.456,-48.114L-24.951,-47.669L-24.465,-47.203L47.202,24.464L47.668,24.95L48.113,25.455L48.537,25.979L48.939,26.519L49.317,27.076L49.672,27.649L50.003,28.235L50.308,28.835L50.589,29.448L50.843,30.071L51.071,30.705L51.273,31.347L51.447,31.998L51.594,32.655L51.713,33.318L51.805,33.985L51.868,34.655L51.903,35.328L51.91,36.001L51.889,36.674L51.84,37.346L51.762,38.015L51.657,38.68L51.524,39.34L51.363,39.994L51.175,40.641L50.961,41.279L50.719,41.908L50.452,42.526L50.159,43.132L49.84,43.726L49.498,44.305L49.131,44.87L48.741,45.419L48.328,45.951L47.893,46.466L47.438,46.961L46.961,47.438L46.466,47.893L45.951,48.328L45.419,48.741L44.87,49.131L44.305,49.498L43.726,49.84L43.132,50.159L42.526,50.452L41.908,50.719L41.279,50.961L40.641,51.175L39.994,51.363L39.34,51.524L38.68,51.657L38.015,51.762L37.346,51.84L36.674,51.889L36.001,51.91L35.328,51.903L34.655,51.868L33.985,51.805L33.318,51.713L32.655,51.594L31.998,51.447L31.347,51.273L30.705,51.071L30.071,50.843L29.448,50.589L28.835,50.308L28.235,50.003L27.649,49.672L27.076,49.317L26.519,48.939L25.979,48.537L25.455,48.113L24.95,47.668L24.464,47.202L-47.203,-24.465L-47.669,-24.951L-48.114,-25.456L-48.538,-25.98L-48.94,-26.52L-49.318,-27.077L-49.673,-27.65L-50.004,-28.236L-50.309,-28.836L-50.59,-29.449L-50.844,-30.072L-51.072,-30.706L-51.274,-31.348L-51.448,-31.999L-51.595,-32.656L-51.714,-33.319L-51.806,-33.986L-51.869,-34.656L-51.904,-35.329L-51.911,-36.002L-51.89,-36.675Z" style="fill:white;"/>
            </g>
            <g id="two_17" transform="matrix(1,0,0,1,347.5,204.167)">
                <path d="M-35.834,-35.834L35.833,35.833" style="fill:white;fill-rule:nonzero;"/>
                <path d="M-35.329,-51.904L-34.656,-51.869L-33.986,-51.806L-33.319,-51.714L-32.656,-51.595L-31.999,-51.448L-31.348,-51.274L-30.706,-51.072L-30.072,-50.844L-29.449,-50.59L-28.836,-50.309L-28.236,-50.004L-27.65,-49.673L-27.077,-49.318L-26.52,-48.94L-25.98,-48.538L-25.456,-48.114L-24.951,-47.669L-24.465,-47.203L47.202,24.464L47.668,24.95L48.113,25.455L48.537,25.979L48.939,26.519L49.317,27.076L49.672,27.649L50.003,28.235L50.308,28.835L50.589,29.448L50.843,30.071L51.071,30.705L51.273,31.347L51.447,31.998L51.594,32.655L51.713,33.318L51.805,33.985L51.868,34.655L51.903,35.328L51.91,36.001L51.889,36.674L51.84,37.346L51.762,38.015L51.657,38.68L51.524,39.34L51.363,39.994L51.175,40.641L50.961,41.279L50.719,41.908L50.452,42.526L50.159,43.132L49.84,43.726L49.498,44.305L49.131,44.87L48.741,45.419L48.328,45.951L47.893,46.466L47.438,46.961L46.961,47.438L46.466,47.893L45.951,48.328L45.419,48.741L44.87,49.131L44.305,49.498L43.726,49.84L43.132,50.159L42.526,50.452L41.908,50.719L41.279,50.961L40.641,51.175L39.994,51.363L39.34,51.524L38.68,51.657L38.015,51.762L37.346,51.84L36.674,51.889L36.001,51.91L35.328,51.903L34.655,51.868L33.985,51.805L33.318,51.713L32.655,51.594L31.998,51.447L31.347,51.273L30.705,51.071L30.071,50.843L29.448,50.589L28.835,50.308L28.235,50.003L27.649,49.672L27.076,49.317L26.519,48.939L25.979,48.537L25.455,48.113L24.95,47.668L24.464,47.202L-47.203,-24.465L-47.669,-24.951L-48.114,-25.456L-48.538,-25.98L-48.94,-26.52L-49.318,-27.077L-49.673,-27.65L-50.004,-28.236L-50.309,-28.836L-50.59,-29.449L-50.844,-30.072L-51.072,-30.706L-51.274,-31.348L-51.448,-31.999L-51.595,-32.656L-51.714,-33.319L-51.806,-33.986L-51.869,-34.656L-51.904,-35.329L-51.911,-36.002L-51.89,-36.675L-51.841,-37.347L-51.763,-38.016L-51.658,-38.681L-51.525,-39.341L-51.364,-39.995L-51.176,-40.642L-50.962,-41.28L-50.72,-41.909L-50.453,-42.527L-50.16,-43.133L-49.841,-43.727L-49.499,-44.306L-49.132,-44.871L-48.742,-45.42L-48.329,-45.952L-47.894,-46.467L-47.439,-46.962L-46.962,-47.439L-46.467,-47.894L-45.952,-48.329L-45.42,-48.742L-44.871,-49.132L-44.306,-49.499L-43.727,-49.841L-43.133,-50.16L-42.527,-50.453L-41.909,-50.72L-41.28,-50.962L-40.642,-51.176L-39.995,-51.364L-39.341,-51.525L-38.681,-51.658L-38.016,-51.763L-37.347,-51.841L-36.675,-51.89L-36.002,-51.911L-35.329,-51.904Z" style="fill:white;"/>
            </g>
            <g id="two_18" transform="matrix(0,1,-1,0,419.167,204.167)">
                <path d="M-35.834,-35.834L35.833,35.833" style="fill:white;fill-rule:nonzero;stroke:white;stroke-width:6px;"/>
            </g>
            <g id="two_19" transform="matrix(0,1,-1,0,60.833,275.833)">
                <path d="M-35.834,-35.834L35.833,35.833" style="fill:white;fill-rule:nonzero;stroke:white;stroke-width:6px;"/>
            </g>
            <g id="two_20" transform="matrix(0,1,-1,0,132.5,275.833)">
                <path d="M-35.834,-35.834L35.833,35.833" style="fill:white;fill-rule:nonzero;stroke:white;stroke-width:10.5px;"/>
            </g>
            <g id="two_21" transform="matrix(0,1,-1,0,204.167,275.833)">
                <path d="M-35.834,-35.834L35.833,35.833" style="fill:white;fill-rule:nonzero;"/>
                <path d="M-51.89,-36.675L-51.841,-37.347L-51.763,-38.016L-51.658,-38.681L-51.525,-39.341L-51.364,-39.995L-51.176,-40.642L-50.962,-41.28L-50.72,-41.909L-50.453,-42.527L-50.16,-43.133L-49.841,-43.727L-49.499,-44.306L-49.132,-44.871L-48.742,-45.42L-48.329,-45.952L-47.894,-46.467L-47.439,-46.962L-46.962,-47.439L-46.467,-47.894L-45.952,-48.329L-45.42,-48.742L-44.871,-49.132L-44.306,-49.499L-43.727,-49.841L-43.133,-50.16L-42.527,-50.453L-41.909,-50.72L-41.28,-50.962L-40.642,-51.176L-39.995,-51.364L-39.341,-51.525L-38.681,-51.658L-38.016,-51.763L-37.347,-51.841L-36.675,-51.89L-36.002,-51.911L-35.329,-51.904L-34.656,-51.869L-33.986,-51.806L-33.319,-51.714L-32.656,-51.595L-31.999,-51.448L-31.348,-51.274L-30.706,-51.072L-30.072,-50.844L-29.449,-50.59L-28.836,-50.309L-28.236,-50.004L-27.65,-49.673L-27.077,-49.318L-26.52,-48.94L-25.98,-48.538L-25.456,-48.114L-24.951,-47.669L-24.465,-47.203L47.202,24.464L47.668,24.95L48.113,25.455L48.537,25.979L48.939,26.519L49.317,27.076L49.672,27.649L50.003,28.235L50.308,28.835L50.589,29.448L50.843,30.071L51.071,30.705L51.273,31.347L51.447,31.998L51.594,32.655L51.713,33.318L51.805,33.985L51.868,34.655L51.903,35.328L51.91,36.001L51.889,36.674L51.84,37.346L51.762,38.015L51.657,38.68L51.524,39.34L51.363,39.994L51.175,40.641L50.961,41.279L50.719,41.908L50.452,42.526L50.159,43.132L49.84,43.726L49.498,44.305L49.131,44.87L48.741,45.419L48.328,45.951L47.893,46.466L47.438,46.961L46.961,47.438L46.466,47.893L45.951,48.328L45.419,48.741L44.87,49.131L44.305,49.498L43.726,49.84L43.132,50.159L42.526,50.452L41.908,50.719L41.279,50.961L40.641,51.175L39.994,51.363L39.34,51.524L38.68,51.657L38.015,51.762L37.346,51.84L36.674,51.889L36.001,51.91L35.328,51.903L34.655,51.868L33.985,51.805L33.318,51.713L32.655,51.594L31.998,51.447L31.347,51.273L30.705,51.071L30.071,50.843L29.448,50.589L28.835,50.308L28.235,50.003L27.649,49.672L27.076,49.317L26.519,48.939L25.979,48.537L25.455,48.113L24.95,47.668L24.464,47.202L-47.203,-24.465L-47.669,-24.951L-48.114,-25.456L-48.538,-25.98L-48.94,-26.52L-49.318,-27.077L-49.673,-27.65L-50.004,-28.236L-50.309,-28.836L-50.59,-29.449L-50.844,-30.072L-51.072,-30.706L-51.274,-31.348L-51.448,-31.999L-51.595,-32.656L-51.714,-33.319L-51.806,-33.986L-51.869,-34.656L-51.904,-35.329L-51.911,-36.002L-51.89,-36.675Z" style="fill:white;"/>
            </g>
            <g id="two_22" transform="matrix(1,0,0,1,275.833,275.833)">
                <path d="M-35.834,-35.834L35.833,35.833" style="fill:white;fill-rule:nonzero;"/>
                <path d="M-35.329,-51.904L-34.656,-51.869L-33.986,-51.806L-33.319,-51.714L-32.656,-51.595L-31.999,-51.448L-31.348,-51.274L-30.706,-51.072L-30.072,-50.844L-29.449,-50.59L-28.836,-50.309L-28.236,-50.004L-27.65,-49.673L-27.077,-49.318L-26.52,-48.94L-25.98,-48.538L-25.456,-48.114L-24.951,-47.669L-24.465,-47.203L47.202,24.464L47.668,24.95L48.113,25.455L48.537,25.979L48.939,26.519L49.317,27.076L49.672,27.649L50.003,28.235L50.308,28.835L50.589,29.448L50.843,30.071L51.071,30.705L51.273,31.347L51.447,31.998L51.594,32.655L51.713,33.318L51.805,33.985L51.868,34.655L51.903,35.328L51.91,36.001L51.889,36.674L51.84,37.346L51.762,38.015L51.657,38.68L51.524,39.34L51.363,39.994L51.175,40.641L50.961,41.279L50.719,41.908L50.452,42.526L50.159,43.132L49.84,43.726L49.498,44.305L49.131,44.87L48.741,45.419L48.328,45.951L47.893,46.466L47.438,46.961L46.961,47.438L46.466,47.893L45.951,48.328L45.419,48.741L44.87,49.131L44.305,49.498L43.726,49.84L43.132,50.159L42.526,50.452L41.908,50.719L41.279,50.961L40.641,51.175L39.994,51.363L39.34,51.524L38.68,51.657L38.015,51.762L37.346,51.84L36.674,51.889L36.001,51.91L35.328,51.903L34.655,51.868L33.985,51.805L33.318,51.713L32.655,51.594L31.998,51.447L31.347,51.273L30.705,51.071L30.071,50.843L29.448,50.589L28.835,50.308L28.235,50.003L27.649,49.672L27.076,49.317L26.519,48.939L25.979,48.537L25.455,48.113L24.95,47.668L24.464,47.202L-47.203,-24.465L-47.669,-24.951L-48.114,-25.456L-48.538,-25.98L-48.94,-26.52L-49.318,-27.077L-49.673,-27.65L-50.004,-28.236L-50.309,-28.836L-50.59,-29.449L-50.844,-30.072L-51.072,-30.706L-51.274,-31.348L-51.448,-31.999L-51.595,-32.656L-51.714,-33.319L-51.806,-33.986L-51.869,-34.656L-51.904,-35.329L-51.911,-36.002L-51.89,-36.675L-51.841,-37.347L-51.763,-38.016L-51.658,-38.681L-51.525,-39.341L-51.364,-39.995L-51.176,-40.642L-50.962,-41.28L-50.72,-41.909L-50.453,-42.527L-50.16,-43.133L-49.841,-43.727L-49.499,-44.306L-49.132,-44.871L-48.742,-45.42L-48.329,-45.952L-47.894,-46.467L-47.439,-46.962L-46.962,-47.439L-46.467,-47.894L-45.952,-48.329L-45.42,-48.742L-44.871,-49.132L-44.306,-49.499L-43.727,-49.841L-43.133,-50.16L-42.527,-50.453L-41.909,-50.72L-41.28,-50.962L-40.642,-51.176L-39.995,-51.364L-39.341,-51.525L-38.681,-51.658L-38.016,-51.763L-37.347,-51.841L-36.675,-51.89L-36.002,-51.911L-35.329,-51.904Z" style="fill:white;"/>
            </g>
            <g id="two_23" transform="matrix(0,1,-1,0,347.5,275.833)">
                <path d="M-35.834,-35.834L35.833,35.833" style="fill:white;fill-rule:nonzero;"/>
                <path d="M-51.89,-36.675L-51.841,-37.347L-51.763,-38.016L-51.658,-38.681L-51.525,-39.341L-51.364,-39.995L-51.176,-40.642L-50.962,-41.28L-50.72,-41.909L-50.453,-42.527L-50.16,-43.133L-49.841,-43.727L-49.499,-44.306L-49.132,-44.871L-48.742,-45.42L-48.329,-45.952L-47.894,-46.467L-47.439,-46.962L-46.962,-47.439L-46.467,-47.894L-45.952,-48.329L-45.42,-48.742L-44.871,-49.132L-44.306,-49.499L-43.727,-49.841L-43.133,-50.16L-42.527,-50.453L-41.909,-50.72L-41.28,-50.962L-40.642,-51.176L-39.995,-51.364L-39.341,-51.525L-38.681,-51.658L-38.016,-51.763L-37.347,-51.841L-36.675,-51.89L-36.002,-51.911L-35.329,-51.904L-34.656,-51.869L-33.986,-51.806L-33.319,-51.714L-32.656,-51.595L-31.999,-51.448L-31.348,-51.274L-30.706,-51.072L-30.072,-50.844L-29.449,-50.59L-28.836,-50.309L-28.236,-50.004L-27.65,-49.673L-27.077,-49.318L-26.52,-48.94L-25.98,-48.538L-25.456,-48.114L-24.951,-47.669L-24.465,-47.203L47.202,24.464L47.668,24.95L48.113,25.455L48.537,25.979L48.939,26.519L49.317,27.076L49.672,27.649L50.003,28.235L50.308,28.835L50.589,29.448L50.843,30.071L51.071,30.705L51.273,31.347L51.447,31.998L51.594,32.655L51.713,33.318L51.805,33.985L51.868,34.655L51.903,35.328L51.91,36.001L51.889,36.674L51.84,37.346L51.762,38.015L51.657,38.68L51.524,39.34L51.363,39.994L51.175,40.641L50.961,41.279L50.719,41.908L50.452,42.526L50.159,43.132L49.84,43.726L49.498,44.305L49.131,44.87L48.741,45.419L48.328,45.951L47.893,46.466L47.438,46.961L46.961,47.438L46.466,47.893L45.951,48.328L45.419,48.741L44.87,49.131L44.305,49.498L43.726,49.84L43.132,50.159L42.526,50.452L41.908,50.719L41.279,50.961L40.641,51.175L39.994,51.363L39.34,51.524L38.68,51.657L38.015,51.762L37.346,51.84L36.674,51.889L36.001,51.91L35.328,51.903L34.655,51.868L33.985,51.805L33.318,51.713L32.655,51.594L31.998,51.447L31.347,51.273L30.705,51.071L30.071,50.843L29.448,50.589L28.835,50.308L28.235,50.003L27.649,49.672L27.076,49.317L26.519,48.939L25.979,48.537L25.455,48.113L24.95,47.668L24.464,47.202L-47.203,-24.465L-47.669,-24.951L-48.114,-25.456L-48.538,-25.98L-48.94,-26.52L-49.318,-27.077L-49.673,-27.65L-50.004,-28.236L-50.309,-28.836L-50.59,-29.449L-50.844,-30.072L-51.072,-30.706L-51.274,-31.348L-51.448,-31.999L-51.595,-32.656L-51.714,-33.319L-51.806,-33.986L-51.869,-34.656L-51.904,-35.329L-51.911,-36.002L-51.89,-36.675Z" style="fill:white;"/>
            </g>
            <g id="two_24" transform="matrix(1,0,0,1,419.167,275.833)">
                <path d="M-35.834,-35.834L35.833,35.833" style="fill:white;fill-rule:nonzero;stroke:white;stroke-width:6px;"/>
            </g>
            <g id="two_25" transform="matrix(0,1,-1,0,60.833,347.5)">
                <path d="M-35.834,-35.834L35.833,35.833" style="fill:white;fill-rule:nonzero;stroke:white;stroke-width:6px;"/>
            </g>
            <g id="two_26" transform="matrix(0,1,-1,0,132.5,347.5)">
                <path d="M-35.834,-35.834L35.833,35.833" style="fill:white;fill-rule:nonzero;"/>
                <path d="M-45.014,-36.214L-44.979,-36.719L-44.916,-37.221L-44.826,-37.719L-44.708,-38.212L-44.564,-38.697L-44.393,-39.174L-44.196,-39.64L-43.974,-40.095L-43.727,-40.537L-43.456,-40.965L-43.161,-41.377L-42.845,-41.772L-42.507,-42.149L-42.149,-42.507L-41.772,-42.845L-41.377,-43.161L-40.965,-43.456L-40.537,-43.727L-40.095,-43.974L-39.64,-44.196L-39.174,-44.393L-38.697,-44.564L-38.212,-44.708L-37.719,-44.826L-37.221,-44.916L-36.719,-44.979L-36.214,-45.014L-35.707,-45.021L-35.202,-45L-34.698,-44.951L-34.197,-44.875L-33.702,-44.771L-33.212,-44.64L-32.731,-44.482L-32.26,-44.298L-31.799,-44.088L-31.35,-43.853L-30.915,-43.594L-30.495,-43.311L-30.092,-43.006L-29.705,-42.679L-29.337,-42.331L42.33,29.336L42.678,29.704L43.005,30.091L43.31,30.494L43.593,30.914L43.852,31.349L44.087,31.798L44.297,32.259L44.481,32.73L44.639,33.211L44.77,33.701L44.873,34.196L44.95,34.697L44.999,35.201L45.02,35.706L45.013,36.213L44.978,36.718L44.915,37.22L44.825,37.718L44.707,38.211L44.563,38.696L44.392,39.173L44.195,39.639L43.973,40.094L43.726,40.536L43.454,40.964L43.16,41.376L42.844,41.771L42.506,42.148L42.148,42.506L41.771,42.844L41.376,43.16L40.964,43.455L40.536,43.726L40.094,43.973L39.639,44.195L39.173,44.392L38.696,44.563L38.211,44.707L37.718,44.825L37.22,44.915L36.718,44.978L36.213,45.013L35.706,45.02L35.201,44.999L34.697,44.95L34.196,44.874L33.701,44.77L33.211,44.639L32.73,44.481L32.259,44.297L31.798,44.087L31.349,43.852L30.914,43.593L30.494,43.31L30.091,43.005L29.704,42.678L29.336,42.33L-42.331,-29.337L-42.679,-29.705L-43.006,-30.092L-43.311,-30.495L-43.594,-30.915L-43.853,-31.35L-44.088,-31.799L-44.298,-32.26L-44.482,-32.731L-44.64,-33.212L-44.771,-33.702L-44.875,-34.197L-44.951,-34.698L-45,-35.202L-45.021,-35.707L-45.014,-36.214Z" style="fill:white;"/>
            </g>
            <g id="two_27" transform="matrix(0,1,-1,0,204.167,347.5)">
                <path d="M-35.834,-35.834L35.833,35.833" style="fill:white;fill-rule:nonzero;stroke:white;stroke-width:10.5px;"/>
            </g>
            <g id="two_28" transform="matrix(0,1,-1,0,275.833,347.5)">
                <path d="M-35.834,-35.834L35.833,35.833" style="fill:white;fill-rule:nonzero;"/>
                <path d="M-45.014,-36.214L-44.979,-36.719L-44.916,-37.221L-44.826,-37.719L-44.708,-38.212L-44.564,-38.697L-44.393,-39.174L-44.196,-39.64L-43.974,-40.095L-43.727,-40.537L-43.456,-40.965L-43.161,-41.377L-42.845,-41.772L-42.507,-42.149L-42.149,-42.507L-41.772,-42.845L-41.377,-43.161L-40.965,-43.455L-40.537,-43.727L-40.095,-43.974L-39.64,-44.196L-39.174,-44.393L-38.697,-44.564L-38.212,-44.708L-37.719,-44.826L-37.221,-44.916L-36.719,-44.979L-36.214,-45.014L-35.707,-45.021L-35.202,-45L-34.698,-44.951L-34.197,-44.874L-33.702,-44.771L-33.212,-44.64L-32.731,-44.482L-32.26,-44.298L-31.799,-44.088L-31.35,-43.853L-30.915,-43.594L-30.495,-43.311L-30.092,-43.006L-29.705,-42.679L-29.337,-42.331L42.33,29.336L42.678,29.704L43.005,30.091L43.31,30.494L43.593,30.914L43.852,31.349L44.087,31.798L44.297,32.259L44.481,32.73L44.639,33.211L44.77,33.701L44.873,34.196L44.95,34.697L44.999,35.201L45.02,35.706L45.013,36.213L44.978,36.718L44.915,37.22L44.825,37.718L44.707,38.211L44.563,38.696L44.392,39.173L44.195,39.639L43.973,40.094L43.726,40.536L43.454,40.964L43.16,41.376L42.844,41.771L42.506,42.148L42.148,42.506L41.771,42.844L41.376,43.16L40.964,43.454L40.536,43.726L40.094,43.973L39.639,44.195L39.173,44.392L38.696,44.563L38.211,44.707L37.718,44.825L37.22,44.915L36.718,44.978L36.213,45.013L35.706,45.02L35.201,44.999L34.697,44.95L34.196,44.873L33.701,44.77L33.211,44.639L32.73,44.481L32.259,44.297L31.798,44.087L31.349,43.852L30.914,43.593L30.494,43.31L30.091,43.005L29.704,42.678L29.336,42.33L-42.331,-29.337L-42.679,-29.705L-43.006,-30.092L-43.311,-30.495L-43.594,-30.915L-43.853,-31.35L-44.088,-31.799L-44.298,-32.26L-44.482,-32.731L-44.64,-33.212L-44.771,-33.702L-44.875,-34.197L-44.951,-34.698L-45,-35.202L-45.021,-35.707L-45.014,-36.214Z" style="fill:white;"/>
            </g>
            <g id="two_29" transform="matrix(1,0,0,1,347.5,347.5)">
                <path d="M-35.834,-35.834L35.833,35.833" style="fill:white;fill-rule:nonzero;"/>
                <path d="M-35.202,-45L-34.698,-44.951L-34.197,-44.875L-33.702,-44.771L-33.212,-44.64L-32.731,-44.482L-32.26,-44.298L-31.799,-44.088L-31.35,-43.853L-30.915,-43.594L-30.495,-43.311L-30.092,-43.006L-29.705,-42.679L-29.337,-42.331L42.33,29.336L42.678,29.704L43.005,30.091L43.31,30.494L43.593,30.914L43.852,31.349L44.087,31.798L44.297,32.259L44.481,32.73L44.639,33.211L44.77,33.701L44.873,34.196L44.95,34.697L44.999,35.201L45.02,35.706L45.013,36.213L44.978,36.718L44.915,37.22L44.825,37.718L44.707,38.211L44.563,38.696L44.392,39.173L44.195,39.639L43.973,40.094L43.726,40.536L43.454,40.964L43.16,41.376L42.844,41.771L42.506,42.148L42.148,42.506L41.771,42.844L41.376,43.16L40.964,43.454L40.536,43.726L40.094,43.973L39.639,44.195L39.173,44.392L38.696,44.563L38.211,44.707L37.718,44.825L37.22,44.915L36.718,44.978L36.213,45.013L35.706,45.02L35.201,44.999L34.697,44.95L34.196,44.873L33.701,44.77L33.211,44.639L32.73,44.481L32.259,44.297L31.798,44.087L31.349,43.852L30.914,43.593L30.494,43.31L30.091,43.005L29.704,42.678L29.336,42.33L-42.331,-29.337L-42.679,-29.705L-43.006,-30.092L-43.311,-30.495L-43.594,-30.915L-43.853,-31.35L-44.088,-31.799L-44.298,-32.26L-44.482,-32.731L-44.64,-33.212L-44.771,-33.702L-44.875,-34.197L-44.951,-34.698L-45,-35.202L-45.021,-35.707L-45.014,-36.214L-44.979,-36.719L-44.916,-37.221L-44.826,-37.719L-44.708,-38.212L-44.564,-38.697L-44.393,-39.174L-44.196,-39.64L-43.974,-40.095L-43.727,-40.537L-43.456,-40.965L-43.161,-41.377L-42.845,-41.772L-42.507,-42.149L-42.149,-42.507L-41.772,-42.845L-41.377,-43.161L-40.965,-43.456L-40.537,-43.727L-40.095,-43.974L-39.64,-44.196L-39.174,-44.393L-38.697,-44.564L-38.212,-44.708L-37.719,-44.826L-37.221,-44.916L-36.719,-44.979L-36.214,-45.014L-35.707,-45.021L-35.202,-45Z" style="fill:white;"/>
            </g>
            <g id="two_30" transform="matrix(1,0,0,1,419.167,347.5)">
                <path d="M-35.834,-35.834L35.833,35.833" style="fill:white;fill-rule:nonzero;stroke:white;stroke-width:6px;"/>
            </g>
            <g id="two_31" transform="matrix(0,1,-1,0,60.833,419.167)">
                <path d="M-35.834,-35.834L35.833,35.833" style="fill:white;fill-rule:nonzero;stroke:white;stroke-width:6px;"/>
            </g>
            <g id="two_32" transform="matrix(0,1,-1,0,132.5,419.167)">
                <path d="M-35.834,-35.834L35.833,35.833" style="fill:white;fill-rule:nonzero;stroke:white;stroke-width:6px;"/>
            </g>
            <g id="two_33" transform="matrix(0,1,-1,0,204.167,419.167)">
                <path d="M-35.834,-35.834L35.833,35.833" style="fill:white;fill-rule:nonzero;stroke:white;stroke-width:6px;"/>
            </g>
            <g id="two_34" transform="matrix(0,1,-1,0,275.833,419.167)">
                <path d="M-35.834,-35.834L35.833,35.833" style="fill:white;fill-rule:nonzero;stroke:white;stroke-width:6px;"/>
            </g>
            <g id="two_35" transform="matrix(1,0,0,1,347.5,419.167)">
                <path d="M-35.834,-35.834L35.833,35.833" style="fill:white;fill-rule:nonzero;stroke:white;stroke-width:6px;"/>
            </g>
            <g id="two_36" transform="matrix(1,0,0,1,419.167,419.167)">
                <path d="M-35.834,-35.834L35.833,35.833" style="fill:white;fill-rule:nonzero;stroke:white;stroke-width:6px;"/>
            </g>
        </g>
    </g>
</svg>
